<svg xmlns="http://www.w3.org/2000/svg" width="760" height="144" viewBox="0 0 760 144" fill="none">
<path fill-rule="evenodd" clip-rule="evenodd" d="M253.635 72.9869H253.598V0H269.68V40.2173C276.109 35.5391 284.023 32.7795 292.583 32.7795C314.104 32.7795 331.55 50.2258 331.55 71.7471C331.55 93.2683 314.104 110.715 292.583 110.715C271.476 110.715 254.289 93.9344 253.635 72.9869ZM269.692 71.7509C269.692 59.1115 279.938 48.8652 292.578 48.8652C305.217 48.8652 315.463 59.1115 315.463 71.7509C315.463 84.3903 305.217 94.6366 292.578 94.6366C279.938 94.6366 269.692 84.3903 269.692 71.7509ZM0 55.6814C0 25.0977 24.793 0.304688 55.3767 0.304688H107.625V15.6684H56.6345C34.6903 15.6684 16.9009 33.4577 16.9009 55.4019C16.9009 77.3462 34.6903 95.1355 56.6345 95.1355H107.625V111.058H55.3767C24.793 111.058 0 86.2651 0 55.6814ZM155.249 110.08C163.8 110.08 171.708 107.325 178.134 102.655V110.702H194.216V71.3169C194.216 71.2487 194.216 71.1804 194.216 71.1121L194.216 71.0171L194.216 70.9074V69.8789H194.197C193.546 48.9284 176.357 32.1445 155.249 32.1445C133.728 32.1445 116.281 49.5909 116.281 71.1121C116.281 92.6334 133.728 110.08 155.249 110.08ZM155.254 94.0121C167.72 94.0121 177.859 84.0445 178.134 71.6441V70.6086C177.859 58.2083 167.72 48.2407 155.254 48.2407C142.615 48.2407 132.368 58.487 132.368 71.1264C132.368 83.7658 142.615 94.0121 155.254 94.0121ZM234.918 49.8114C237.106 49.1161 239.437 48.7409 241.856 48.7409C243.152 48.7409 244.424 48.8487 245.662 49.0559V32.8559C244.408 32.7342 243.136 32.6719 241.851 32.6719C220.951 32.6719 203.895 49.1246 202.926 69.7845H202.883V110.608H218.965V72.0704H218.974C218.971 71.9228 218.97 71.7749 218.97 71.6266C218.97 61.7454 225.232 53.3268 234.005 50.1231C233.955 50.0179 233.902 49.914 233.847 49.8114H234.918Z" fill="black"/>
<path fill-rule="evenodd" clip-rule="evenodd" d="M544.357 54.4309H544.36V73.6098H544.413C545.345 93.3723 560.998 109.283 580.652 110.62H586.021C586.156 110.611 586.291 110.601 586.425 110.59V94.4177C585.417 94.5535 584.388 94.6236 583.342 94.6236C570.702 94.6236 560.456 84.3773 560.456 71.7379C560.456 71.1477 560.479 70.5627 560.522 69.9837L560.442 69.9793L560.442 46.9972L580.227 46.9972V30.9154L560.439 30.9154L560.439 0H544.357V30.9154L524.559 30.9154V46.9972L544.357 46.9972V54.4309ZM476.64 30.9141C498.332 30.9141 515.917 48.4989 515.917 70.1909V109.907C515.917 110.4 515.517 110.799 515.024 110.799H501.069L501.069 72.6721C501.069 59.1786 490.13 48.24 476.637 48.24C463.143 48.24 452.205 59.1786 452.205 72.6721L452.205 110.799L438.256 110.799C437.763 110.799 437.363 110.4 437.363 109.907V70.1909C437.363 48.4989 454.948 30.9141 476.64 30.9141ZM759.009 70.5331H758.983C758.332 49.5817 741.143 32.7969 720.034 32.7969C698.513 32.7969 681.066 50.2433 681.066 71.7645C681.066 93.2857 698.513 110.732 720.034 110.732C728.589 110.732 736.5 107.975 742.927 103.302V143.52H759.009V70.5331ZM720.039 94.6464C732.679 94.6464 742.925 84.4001 742.925 71.7607C742.925 59.1212 732.679 48.8749 720.039 48.8749C707.4 48.8749 697.154 59.1212 697.153 71.7607C697.154 84.4001 707.4 94.6464 720.039 94.6464ZM672.694 76.7005C672.902 75.0689 673.009 73.4058 673.009 71.7176C673.009 50.1964 655.563 32.75 634.042 32.75C612.521 32.75 595.074 50.1964 595.074 71.7176C595.074 93.2388 612.521 110.685 634.042 110.685C651.238 110.685 665.833 99.546 671.004 84.0895L653.301 84.0895C649.229 90.4123 642.127 94.5995 634.047 94.5995C623.117 94.5995 613.977 86.9378 611.704 76.6923L656.39 76.6923L656.388 76.7005H672.694ZM611.998 65.5587C614.687 55.9087 623.54 48.828 634.047 48.828C644.554 48.828 653.407 55.9087 656.096 65.5587L611.998 65.5587Z" fill="black"/>
<path fill-rule="evenodd" clip-rule="evenodd" d="M407.135 109.671L429.821 70.3774L407.135 31.0836L361.762 31.0836L339.076 70.3774L361.762 109.671L407.135 109.671ZM398.963 95.2105L413.246 70.4717L398.963 45.7328L370.397 45.7328L356.114 70.4717L370.397 95.2105L398.963 95.2105Z" fill="#F0AD00"/>
<path fill-rule="evenodd" clip-rule="evenodd" d="M410.736 69.318L406.383 66.8048L392.811 90.3113L397.164 92.8245L410.736 69.318ZM377.076 49.8844L372.723 47.3712L359.151 70.8777L363.504 73.391L377.076 49.8844Z" fill="black"/>
</svg>
